# xmcd CD database file
#
# Track frame offsets:
#	150
#	13958
#	26547
#	41020
#	56386
#	72214
#	87055
#	107411
#	119092
#	132731
#	145589
#	159902
#	175763
#	191974
#	204776
#	215774
#
# Disc length: 3068 seconds
#
# Revision: 0
# Processed by: cddbd v1.5.2PL0 Copyright (c) Steve Scherf et al.
# Submitted via: CDex 1.95
#
DISCID=e20bfa10
DTITLE=Aaron Tippin - RCA Country Legends 2002
DYEAR=2002
DGENRE=Country
TTITLE0=Aaron Tippin - You've Got To Stand For Something
TTITLE1=Aaron Tippin - There Ain't Nothin' Wrong With The Radio
TTITLE2=Aaron Tippin - I Wouldn't Have It Any Other Way
TTITLE3=Aaron Tippin - My Blue Angel
TTITLE4=Aaron Tippin - Workin' Man's Ph.D
TTITLE5=Aaron Tippin - That's As Close As I Get To Loving You
TTITLE6=Aaron Tippin - The Call Of the Wild
TTITLE7=Aaron Tippin - Ain't That A Hell Of A Note
TTITLE8=Aaron Tippin - The Sky's Got The Blues
TTITLE9=Aaron Tippin - Many, Many, Many Bears Ago
TTITLE10=Aaron Tippin - The Man That Came Between Us, Was Me
TTITLE11=Aaron Tippin - I Wonder How Far It Is Over You
TTITLE12=Aaron Tippin - These Sweet Dreams
TTITLE13=Aaron Tippin - I Miss Misbehavin'
TTITLE14=Aaron Tippin - When Country Took The Throne
TTITLE15=Aaron Tippin - You Are The Woman
EXTD=YEAR: 2002
EXTT0=
EXTT1=
EXTT2=
EXTT3=
EXTT4=
EXTT5=
EXTT6=
EXTT7=
EXTT8=
EXTT9=
EXTT10=
EXTT11=
EXTT12=
EXTT13=
EXTT14=
EXTT15=
PLAYORDER=
